# xmcd
#
# Track frame offsets: 
#        150
#        13344
#        29420
#        46238
#        69389
#        84673
#        99532
#        116991
#        140897
#        164083
#        180835
#
# Disc length: 2704 seconds
#
# Revision: 1
# Processed by: cddbd v1.5.2PL0 Copyright (c) Steve Scherf et al.
# Submitted via: ExactAudioCopy v1.0b4
#
DISCID=9b0a8e0b
DTITLE=Damon Fowler - The Whiskey Bayou Session
DYEAR=2018
DGENRE=Blues
TTITLE0=It Came Out Of Nowhere
TTITLE1=Fairweather Friend
TTITLE2=Hold Me Tight
TTITLE3=Up The Line
TTITLE4=Ain't Gonna Rock With You No More
TTITLE5=Just A Closer Walk With Thee
TTITLE6=Pour Me
TTITLE7=Holiday
TTITLE8=Running Out Of Time
TTITLE9=Candy
TTITLE10=Florida Baby
EXTD=
EXTT0=
EXTT1=
EXTT2=
EXTT3=
EXTT4=
EXTT5=
EXTT6=
EXTT7=
EXTT8=
EXTT9=
EXTT10=
PLAYORDER=
